<mxfile host="Electron" agent="Mozilla/5.0 (X11; Linux x86_64) AppleWebKit/537.36 (KHTML, like Gecko) draw.io/24.7.8 Chrome/128.0.6613.36 Electron/32.0.1 Safari/537.36" version="24.7.8">
  <diagram name="Page-1" id="v1mIwpVCoUotz5YqJ9_S">
    <mxGraphModel dx="1674" dy="843" grid="1" gridSize="10" guides="1" tooltips="1" connect="1" arrows="1" fold="1" page="1" pageScale="1" pageWidth="1169" pageHeight="827" math="1" shadow="0">
      <root>
        <mxCell id="0" />
        <mxCell id="1" parent="0" />
        <mxCell id="ygjz8XeZ4UIsApzR02BV-1" value="$$f(x)$$" style="rounded=0;whiteSpace=wrap;html=1;" vertex="1" parent="1">
          <mxGeometry x="375" y="359" width="120" height="60" as="geometry" />
        </mxCell>
        <mxCell id="ygjz8XeZ4UIsApzR02BV-2" value="" style="endArrow=classic;html=1;rounded=0;entryX=0;entryY=0.5;entryDx=0;entryDy=0;" edge="1" parent="1" target="ygjz8XeZ4UIsApzR02BV-1">
          <mxGeometry width="50" height="50" relative="1" as="geometry">
            <mxPoint x="295" y="389" as="sourcePoint" />
            <mxPoint x="355" y="389" as="targetPoint" />
          </mxGeometry>
        </mxCell>
        <mxCell id="ygjz8XeZ4UIsApzR02BV-3" value="" style="endArrow=classic;html=1;rounded=0;entryX=0;entryY=0.5;entryDx=0;entryDy=0;" edge="1" parent="1">
          <mxGeometry width="50" height="50" relative="1" as="geometry">
            <mxPoint x="495" y="388.5" as="sourcePoint" />
            <mxPoint x="575" y="388.5" as="targetPoint" />
          </mxGeometry>
        </mxCell>
        <mxCell id="ygjz8XeZ4UIsApzR02BV-4" value="$$x$$" style="text;html=1;align=center;verticalAlign=middle;whiteSpace=wrap;rounded=0;" vertex="1" parent="1">
          <mxGeometry x="275" y="373" width="20" height="30" as="geometry" />
        </mxCell>
        <mxCell id="ygjz8XeZ4UIsApzR02BV-5" value="$$y$$" style="text;html=1;align=center;verticalAlign=middle;whiteSpace=wrap;rounded=0;" vertex="1" parent="1">
          <mxGeometry x="575" y="373" width="20" height="30" as="geometry" />
        </mxCell>
        <mxCell id="ygjz8XeZ4UIsApzR02BV-6" value="$$\ket{q_0 q_1}$$" style="text;html=1;align=center;verticalAlign=middle;whiteSpace=wrap;rounded=0;" vertex="1" parent="1">
          <mxGeometry x="275" y="389" width="20" height="30" as="geometry" />
        </mxCell>
        <mxCell id="ygjz8XeZ4UIsApzR02BV-7" value="$$\ket{q_2 q_3}$$" style="text;html=1;align=center;verticalAlign=middle;whiteSpace=wrap;rounded=0;" vertex="1" parent="1">
          <mxGeometry x="575" y="389" width="20" height="30" as="geometry" />
        </mxCell>
        <mxCell id="ygjz8XeZ4UIsApzR02BV-8" value="&lt;font style=&quot;font-size: 48px;&quot;&gt;}&lt;/font&gt;" style="text;html=1;align=center;verticalAlign=middle;whiteSpace=wrap;rounded=0;rotation=-90;" vertex="1" parent="1">
          <mxGeometry x="265" y="389" width="30" height="80" as="geometry" />
        </mxCell>
        <mxCell id="ygjz8XeZ4UIsApzR02BV-9" value="&lt;font style=&quot;font-size: 48px;&quot;&gt;}&lt;/font&gt;" style="text;html=1;align=center;verticalAlign=middle;whiteSpace=wrap;rounded=0;rotation=-90;" vertex="1" parent="1">
          <mxGeometry x="565" y="389" width="30" height="80" as="geometry" />
        </mxCell>
        <mxCell id="ygjz8XeZ4UIsApzR02BV-10" value="$$q_0$$" style="ellipse;whiteSpace=wrap;html=1;aspect=fixed;" vertex="1" parent="1">
          <mxGeometry x="235" y="439" width="40" height="40" as="geometry" />
        </mxCell>
        <mxCell id="ygjz8XeZ4UIsApzR02BV-11" value="$$q_0$$" style="ellipse;whiteSpace=wrap;html=1;aspect=fixed;" vertex="1" parent="1">
          <mxGeometry x="295" y="439" width="40" height="40" as="geometry" />
        </mxCell>
        <mxCell id="ygjz8XeZ4UIsApzR02BV-12" value="$$q_2$$" style="ellipse;whiteSpace=wrap;html=1;aspect=fixed;" vertex="1" parent="1">
          <mxGeometry x="535" y="439" width="40" height="40" as="geometry" />
        </mxCell>
        <mxCell id="ygjz8XeZ4UIsApzR02BV-13" value="$$q_3$$" style="ellipse;whiteSpace=wrap;html=1;aspect=fixed;" vertex="1" parent="1">
          <mxGeometry x="595" y="439" width="40" height="40" as="geometry" />
        </mxCell>
        <mxCell id="ygjz8XeZ4UIsApzR02BV-14" value="$$\text{Input}$$" style="text;html=1;align=center;verticalAlign=middle;whiteSpace=wrap;rounded=0;" vertex="1" parent="1">
          <mxGeometry x="255" y="343" width="60" height="30" as="geometry" />
        </mxCell>
        <mxCell id="ygjz8XeZ4UIsApzR02BV-15" value="$$\text{Output}$$" style="text;html=1;align=center;verticalAlign=middle;whiteSpace=wrap;rounded=0;" vertex="1" parent="1">
          <mxGeometry x="555" y="343" width="60" height="30" as="geometry" />
        </mxCell>
        <mxCell id="ygjz8XeZ4UIsApzR02BV-16" value="$$\underline{q_1 q_2}$$" style="text;html=1;align=center;verticalAlign=middle;whiteSpace=wrap;rounded=0;" vertex="1" parent="1">
          <mxGeometry x="685" y="219" width="35" height="40" as="geometry" />
        </mxCell>
        <mxCell id="ygjz8XeZ4UIsApzR02BV-17" value="$$\underline{q_1 q_2}$$" style="text;html=1;align=center;verticalAlign=middle;whiteSpace=wrap;rounded=0;" vertex="1" parent="1">
          <mxGeometry x="745" y="219" width="35" height="40" as="geometry" />
        </mxCell>
        <mxCell id="ygjz8XeZ4UIsApzR02BV-18" value="$$00$$" style="text;html=1;align=center;verticalAlign=middle;whiteSpace=wrap;rounded=0;" vertex="1" parent="1">
          <mxGeometry x="680" y="279" width="35" height="40" as="geometry" />
        </mxCell>
        <mxCell id="ygjz8XeZ4UIsApzR02BV-19" value="$$01$$" style="text;html=1;align=center;verticalAlign=middle;whiteSpace=wrap;rounded=0;" vertex="1" parent="1">
          <mxGeometry x="680" y="379" width="35" height="40" as="geometry" />
        </mxCell>
        <mxCell id="ygjz8XeZ4UIsApzR02BV-20" value="$$10$$" style="text;html=1;align=center;verticalAlign=middle;whiteSpace=wrap;rounded=0;" vertex="1" parent="1">
          <mxGeometry x="680" y="479" width="35" height="40" as="geometry" />
        </mxCell>
        <mxCell id="ygjz8XeZ4UIsApzR02BV-21" value="$$11$$" style="text;html=1;align=center;verticalAlign=middle;whiteSpace=wrap;rounded=0;" vertex="1" parent="1">
          <mxGeometry x="680" y="579" width="35" height="40" as="geometry" />
        </mxCell>
        <mxCell id="ygjz8XeZ4UIsApzR02BV-23" value="$$00$$" style="text;html=1;align=center;verticalAlign=middle;whiteSpace=wrap;rounded=0;" vertex="1" parent="1">
          <mxGeometry x="745" y="259" width="35" height="20" as="geometry" />
        </mxCell>
        <mxCell id="ygjz8XeZ4UIsApzR02BV-24" value="$$01$$" style="text;html=1;align=center;verticalAlign=middle;whiteSpace=wrap;rounded=0;" vertex="1" parent="1">
          <mxGeometry x="745" y="279" width="35" height="20" as="geometry" />
        </mxCell>
        <mxCell id="ygjz8XeZ4UIsApzR02BV-26" value="$$10$$" style="text;html=1;align=center;verticalAlign=middle;whiteSpace=wrap;rounded=0;" vertex="1" parent="1">
          <mxGeometry x="745" y="299" width="35" height="20" as="geometry" />
        </mxCell>
        <mxCell id="ygjz8XeZ4UIsApzR02BV-27" value="$$11$$" style="text;html=1;align=center;verticalAlign=middle;whiteSpace=wrap;rounded=0;" vertex="1" parent="1">
          <mxGeometry x="745" y="319" width="35" height="20" as="geometry" />
        </mxCell>
        <mxCell id="ygjz8XeZ4UIsApzR02BV-37" value="$$00$$" style="text;html=1;align=center;verticalAlign=middle;whiteSpace=wrap;rounded=0;" vertex="1" parent="1">
          <mxGeometry x="745" y="359" width="35" height="20" as="geometry" />
        </mxCell>
        <mxCell id="ygjz8XeZ4UIsApzR02BV-38" value="$$01$$" style="text;html=1;align=center;verticalAlign=middle;whiteSpace=wrap;rounded=0;" vertex="1" parent="1">
          <mxGeometry x="745" y="379" width="35" height="20" as="geometry" />
        </mxCell>
        <mxCell id="ygjz8XeZ4UIsApzR02BV-39" value="$$10$$" style="text;html=1;align=center;verticalAlign=middle;whiteSpace=wrap;rounded=0;" vertex="1" parent="1">
          <mxGeometry x="745" y="399" width="35" height="20" as="geometry" />
        </mxCell>
        <mxCell id="ygjz8XeZ4UIsApzR02BV-40" value="$$11$$" style="text;html=1;align=center;verticalAlign=middle;whiteSpace=wrap;rounded=0;" vertex="1" parent="1">
          <mxGeometry x="745" y="419" width="35" height="20" as="geometry" />
        </mxCell>
        <mxCell id="ygjz8XeZ4UIsApzR02BV-41" value="$$00$$" style="text;html=1;align=center;verticalAlign=middle;whiteSpace=wrap;rounded=0;" vertex="1" parent="1">
          <mxGeometry x="745" y="459" width="35" height="20" as="geometry" />
        </mxCell>
        <mxCell id="ygjz8XeZ4UIsApzR02BV-42" value="$$01$$" style="text;html=1;align=center;verticalAlign=middle;whiteSpace=wrap;rounded=0;" vertex="1" parent="1">
          <mxGeometry x="745" y="479" width="35" height="20" as="geometry" />
        </mxCell>
        <mxCell id="ygjz8XeZ4UIsApzR02BV-43" value="$$10$$" style="text;html=1;align=center;verticalAlign=middle;whiteSpace=wrap;rounded=0;" vertex="1" parent="1">
          <mxGeometry x="745" y="499" width="35" height="20" as="geometry" />
        </mxCell>
        <mxCell id="ygjz8XeZ4UIsApzR02BV-44" value="$$11$$" style="text;html=1;align=center;verticalAlign=middle;whiteSpace=wrap;rounded=0;" vertex="1" parent="1">
          <mxGeometry x="745" y="519" width="35" height="20" as="geometry" />
        </mxCell>
        <mxCell id="ygjz8XeZ4UIsApzR02BV-45" value="$$00$$" style="text;html=1;align=center;verticalAlign=middle;whiteSpace=wrap;rounded=0;" vertex="1" parent="1">
          <mxGeometry x="745" y="559" width="35" height="20" as="geometry" />
        </mxCell>
        <mxCell id="ygjz8XeZ4UIsApzR02BV-46" value="$$01$$" style="text;html=1;align=center;verticalAlign=middle;whiteSpace=wrap;rounded=0;" vertex="1" parent="1">
          <mxGeometry x="745" y="579" width="35" height="20" as="geometry" />
        </mxCell>
        <mxCell id="ygjz8XeZ4UIsApzR02BV-47" value="$$10$$" style="text;html=1;align=center;verticalAlign=middle;whiteSpace=wrap;rounded=0;" vertex="1" parent="1">
          <mxGeometry x="745" y="599" width="35" height="20" as="geometry" />
        </mxCell>
        <mxCell id="ygjz8XeZ4UIsApzR02BV-48" value="$$11$$" style="text;html=1;align=center;verticalAlign=middle;whiteSpace=wrap;rounded=0;" vertex="1" parent="1">
          <mxGeometry x="745" y="619" width="35" height="20" as="geometry" />
        </mxCell>
        <mxCell id="ygjz8XeZ4UIsApzR02BV-50" value="" style="endArrow=none;html=1;rounded=0;exitX=1;exitY=0.5;exitDx=0;exitDy=0;entryX=0;entryY=0.5;entryDx=0;entryDy=0;strokeWidth=2" edge="1" parent="1" source="ygjz8XeZ4UIsApzR02BV-18" target="ygjz8XeZ4UIsApzR02BV-23">
          <mxGeometry width="50" height="50" relative="1" as="geometry">
            <mxPoint x="755" y="409" as="sourcePoint" />
            <mxPoint x="805" y="359" as="targetPoint" />
          </mxGeometry>
        </mxCell>
        <mxCell id="ygjz8XeZ4UIsApzR02BV-51" value="" style="endArrow=none;html=1;rounded=0;exitX=1;exitY=0.5;exitDx=0;exitDy=0;entryX=0;entryY=0.5;entryDx=0;entryDy=0;strokeWidth=2" edge="1" parent="1" source="ygjz8XeZ4UIsApzR02BV-18" target="ygjz8XeZ4UIsApzR02BV-24">
          <mxGeometry width="50" height="50" relative="1" as="geometry">
            <mxPoint x="725" y="309" as="sourcePoint" />
            <mxPoint x="755" y="279" as="targetPoint" />
          </mxGeometry>
        </mxCell>
        <mxCell id="ygjz8XeZ4UIsApzR02BV-52" value="" style="endArrow=none;html=1;rounded=0;exitX=1;exitY=0.5;exitDx=0;exitDy=0;entryX=0;entryY=0.5;entryDx=0;entryDy=0;strokeWidth=2" edge="1" parent="1" source="ygjz8XeZ4UIsApzR02BV-18" target="ygjz8XeZ4UIsApzR02BV-26">
          <mxGeometry width="50" height="50" relative="1" as="geometry">
            <mxPoint x="735" y="319" as="sourcePoint" />
            <mxPoint x="765" y="289" as="targetPoint" />
          </mxGeometry>
        </mxCell>
        <mxCell id="ygjz8XeZ4UIsApzR02BV-53" value="" style="endArrow=none;html=1;rounded=0;entryX=0;entryY=0.5;entryDx=0;entryDy=0;strokeWidth=2" edge="1" parent="1" target="ygjz8XeZ4UIsApzR02BV-27">
          <mxGeometry width="50" height="50" relative="1" as="geometry">
            <mxPoint x="715" y="299" as="sourcePoint" />
            <mxPoint x="775" y="299" as="targetPoint" />
          </mxGeometry>
        </mxCell>
        <mxCell id="ygjz8XeZ4UIsApzR02BV-62" value="" style="group" vertex="1" connectable="0" parent="1">
          <mxGeometry x="715" y="369" width="30" height="60" as="geometry" />
        </mxCell>
        <mxCell id="ygjz8XeZ4UIsApzR02BV-58" value="" style="endArrow=none;html=1;rounded=0;exitX=1;exitY=0.5;exitDx=0;exitDy=0;entryX=0;entryY=0.5;entryDx=0;entryDy=0;strokeWidth=2" edge="1" parent="ygjz8XeZ4UIsApzR02BV-62">
          <mxGeometry width="50" height="50" relative="1" as="geometry">
            <mxPoint y="30" as="sourcePoint" />
            <mxPoint x="30" as="targetPoint" />
          </mxGeometry>
        </mxCell>
        <mxCell id="ygjz8XeZ4UIsApzR02BV-59" value="" style="endArrow=none;html=1;rounded=0;exitX=1;exitY=0.5;exitDx=0;exitDy=0;entryX=0;entryY=0.5;entryDx=0;entryDy=0;strokeWidth=2" edge="1" parent="ygjz8XeZ4UIsApzR02BV-62">
          <mxGeometry width="50" height="50" relative="1" as="geometry">
            <mxPoint y="30" as="sourcePoint" />
            <mxPoint x="30" y="20" as="targetPoint" />
          </mxGeometry>
        </mxCell>
        <mxCell id="ygjz8XeZ4UIsApzR02BV-60" value="" style="endArrow=none;html=1;rounded=0;exitX=1;exitY=0.5;exitDx=0;exitDy=0;entryX=0;entryY=0.5;entryDx=0;entryDy=0;strokeWidth=2" edge="1" parent="ygjz8XeZ4UIsApzR02BV-62">
          <mxGeometry width="50" height="50" relative="1" as="geometry">
            <mxPoint y="30" as="sourcePoint" />
            <mxPoint x="30" y="40" as="targetPoint" />
          </mxGeometry>
        </mxCell>
        <mxCell id="ygjz8XeZ4UIsApzR02BV-61" value="" style="endArrow=none;html=1;rounded=0;entryX=0;entryY=0.5;entryDx=0;entryDy=0;strokeWidth=2" edge="1" parent="ygjz8XeZ4UIsApzR02BV-62">
          <mxGeometry width="50" height="50" relative="1" as="geometry">
            <mxPoint y="30" as="sourcePoint" />
            <mxPoint x="30" y="60" as="targetPoint" />
          </mxGeometry>
        </mxCell>
        <mxCell id="ygjz8XeZ4UIsApzR02BV-67" value="" style="group" vertex="1" connectable="0" parent="1">
          <mxGeometry x="715" y="469" width="30" height="60" as="geometry" />
        </mxCell>
        <mxCell id="ygjz8XeZ4UIsApzR02BV-68" value="" style="endArrow=none;html=1;rounded=0;exitX=1;exitY=0.5;exitDx=0;exitDy=0;entryX=0;entryY=0.5;entryDx=0;entryDy=0;strokeWidth=2" edge="1" parent="ygjz8XeZ4UIsApzR02BV-67">
          <mxGeometry width="50" height="50" relative="1" as="geometry">
            <mxPoint y="30" as="sourcePoint" />
            <mxPoint x="30" as="targetPoint" />
          </mxGeometry>
        </mxCell>
        <mxCell id="ygjz8XeZ4UIsApzR02BV-69" value="" style="endArrow=none;html=1;rounded=0;exitX=1;exitY=0.5;exitDx=0;exitDy=0;entryX=0;entryY=0.5;entryDx=0;entryDy=0;strokeWidth=2" edge="1" parent="ygjz8XeZ4UIsApzR02BV-67">
          <mxGeometry width="50" height="50" relative="1" as="geometry">
            <mxPoint y="30" as="sourcePoint" />
            <mxPoint x="30" y="20" as="targetPoint" />
          </mxGeometry>
        </mxCell>
        <mxCell id="ygjz8XeZ4UIsApzR02BV-70" value="" style="endArrow=none;html=1;rounded=0;exitX=1;exitY=0.5;exitDx=0;exitDy=0;entryX=0;entryY=0.5;entryDx=0;entryDy=0;strokeWidth=2" edge="1" parent="ygjz8XeZ4UIsApzR02BV-67">
          <mxGeometry width="50" height="50" relative="1" as="geometry">
            <mxPoint y="30" as="sourcePoint" />
            <mxPoint x="30" y="40" as="targetPoint" />
          </mxGeometry>
        </mxCell>
        <mxCell id="ygjz8XeZ4UIsApzR02BV-71" value="" style="endArrow=none;html=1;rounded=0;entryX=0;entryY=0.5;entryDx=0;entryDy=0;strokeWidth=2" edge="1" parent="ygjz8XeZ4UIsApzR02BV-67">
          <mxGeometry width="50" height="50" relative="1" as="geometry">
            <mxPoint y="30" as="sourcePoint" />
            <mxPoint x="30" y="60" as="targetPoint" />
          </mxGeometry>
        </mxCell>
        <mxCell id="ygjz8XeZ4UIsApzR02BV-72" value="" style="group" vertex="1" connectable="0" parent="1">
          <mxGeometry x="715" y="569" width="30" height="60" as="geometry" />
        </mxCell>
        <mxCell id="ygjz8XeZ4UIsApzR02BV-73" value="" style="endArrow=none;html=1;rounded=0;exitX=1;exitY=0.5;exitDx=0;exitDy=0;entryX=0;entryY=0.5;entryDx=0;entryDy=0;strokeWidth=2" edge="1" parent="ygjz8XeZ4UIsApzR02BV-72">
          <mxGeometry width="50" height="50" relative="1" as="geometry">
            <mxPoint y="30" as="sourcePoint" />
            <mxPoint x="30" as="targetPoint" />
          </mxGeometry>
        </mxCell>
        <mxCell id="ygjz8XeZ4UIsApzR02BV-74" value="" style="endArrow=none;html=1;rounded=0;exitX=1;exitY=0.5;exitDx=0;exitDy=0;entryX=0;entryY=0.5;entryDx=0;entryDy=0;strokeWidth=2" edge="1" parent="ygjz8XeZ4UIsApzR02BV-72">
          <mxGeometry width="50" height="50" relative="1" as="geometry">
            <mxPoint y="30" as="sourcePoint" />
            <mxPoint x="30" y="20" as="targetPoint" />
          </mxGeometry>
        </mxCell>
        <mxCell id="ygjz8XeZ4UIsApzR02BV-75" value="" style="endArrow=none;html=1;rounded=0;exitX=1;exitY=0.5;exitDx=0;exitDy=0;entryX=0;entryY=0.5;entryDx=0;entryDy=0;strokeWidth=2" edge="1" parent="ygjz8XeZ4UIsApzR02BV-72">
          <mxGeometry width="50" height="50" relative="1" as="geometry">
            <mxPoint y="30" as="sourcePoint" />
            <mxPoint x="30" y="40" as="targetPoint" />
          </mxGeometry>
        </mxCell>
        <mxCell id="ygjz8XeZ4UIsApzR02BV-76" value="" style="endArrow=none;html=1;rounded=0;entryX=0;entryY=0.5;entryDx=0;entryDy=0;strokeWidth=2" edge="1" parent="ygjz8XeZ4UIsApzR02BV-72">
          <mxGeometry width="50" height="50" relative="1" as="geometry">
            <mxPoint y="30" as="sourcePoint" />
            <mxPoint x="30" y="60" as="targetPoint" />
          </mxGeometry>
        </mxCell>
        <mxCell id="ygjz8XeZ4UIsApzR02BV-96" value="" style="group" vertex="1" connectable="0" parent="1">
          <mxGeometry x="780" y="259" width="87.5" height="80" as="geometry" />
        </mxCell>
        <mxCell id="ygjz8XeZ4UIsApzR02BV-80" value="$$0$$" style="text;html=1;align=center;verticalAlign=middle;whiteSpace=wrap;rounded=0;" vertex="1" parent="ygjz8XeZ4UIsApzR02BV-96">
          <mxGeometry x="57.5" width="30" height="20" as="geometry" />
        </mxCell>
        <mxCell id="ygjz8XeZ4UIsApzR02BV-81" value="" style="endArrow=none;html=1;rounded=0;strokeWidth=2;dashed=1;entryX=0;entryY=0.5;entryDx=0;entryDy=0;exitX=1;exitY=0.5;exitDx=0;exitDy=0;" edge="1" parent="ygjz8XeZ4UIsApzR02BV-96" source="ygjz8XeZ4UIsApzR02BV-23" target="ygjz8XeZ4UIsApzR02BV-80">
          <mxGeometry width="50" height="50" relative="1" as="geometry">
            <mxPoint x="5" y="9.5" as="sourcePoint" />
            <mxPoint x="45" y="9.5" as="targetPoint" />
          </mxGeometry>
        </mxCell>
        <mxCell id="ygjz8XeZ4UIsApzR02BV-82" value="$$1/4$$" style="text;html=1;align=center;verticalAlign=middle;whiteSpace=wrap;rounded=0;" vertex="1" parent="ygjz8XeZ4UIsApzR02BV-96">
          <mxGeometry x="57.5" y="20" width="30" height="20" as="geometry" />
        </mxCell>
        <mxCell id="ygjz8XeZ4UIsApzR02BV-83" value="" style="endArrow=none;html=1;rounded=0;strokeWidth=2;dashed=1;entryX=0;entryY=0.5;entryDx=0;entryDy=0;exitX=1;exitY=0.5;exitDx=0;exitDy=0;" edge="1" parent="ygjz8XeZ4UIsApzR02BV-96" target="ygjz8XeZ4UIsApzR02BV-82">
          <mxGeometry width="50" height="50" relative="1" as="geometry">
            <mxPoint y="30" as="sourcePoint" />
            <mxPoint x="45" y="29.5" as="targetPoint" />
          </mxGeometry>
        </mxCell>
        <mxCell id="ygjz8XeZ4UIsApzR02BV-84" value="$$0$$" style="text;html=1;align=center;verticalAlign=middle;whiteSpace=wrap;rounded=0;" vertex="1" parent="ygjz8XeZ4UIsApzR02BV-96">
          <mxGeometry x="57.5" y="40" width="30" height="20" as="geometry" />
        </mxCell>
        <mxCell id="ygjz8XeZ4UIsApzR02BV-85" value="" style="endArrow=none;html=1;rounded=0;strokeWidth=2;dashed=1;entryX=0;entryY=0.5;entryDx=0;entryDy=0;exitX=1;exitY=0.5;exitDx=0;exitDy=0;" edge="1" parent="ygjz8XeZ4UIsApzR02BV-96" target="ygjz8XeZ4UIsApzR02BV-84">
          <mxGeometry width="50" height="50" relative="1" as="geometry">
            <mxPoint y="50" as="sourcePoint" />
            <mxPoint x="45" y="49.5" as="targetPoint" />
          </mxGeometry>
        </mxCell>
        <mxCell id="ygjz8XeZ4UIsApzR02BV-86" value="$$0$$" style="text;html=1;align=center;verticalAlign=middle;whiteSpace=wrap;rounded=0;" vertex="1" parent="ygjz8XeZ4UIsApzR02BV-96">
          <mxGeometry x="57.5" y="60" width="30" height="20" as="geometry" />
        </mxCell>
        <mxCell id="ygjz8XeZ4UIsApzR02BV-87" value="" style="endArrow=none;html=1;rounded=0;strokeWidth=2;dashed=1;entryX=0;entryY=0.5;entryDx=0;entryDy=0;exitX=1;exitY=0.5;exitDx=0;exitDy=0;" edge="1" parent="ygjz8XeZ4UIsApzR02BV-96" target="ygjz8XeZ4UIsApzR02BV-86">
          <mxGeometry width="50" height="50" relative="1" as="geometry">
            <mxPoint y="70" as="sourcePoint" />
            <mxPoint x="45" y="69.5" as="targetPoint" />
          </mxGeometry>
        </mxCell>
        <mxCell id="ygjz8XeZ4UIsApzR02BV-99" value="$$0$$" style="text;html=1;align=center;verticalAlign=middle;whiteSpace=wrap;rounded=0;" vertex="1" parent="1">
          <mxGeometry x="837.5" y="359" width="30" height="20" as="geometry" />
        </mxCell>
        <mxCell id="ygjz8XeZ4UIsApzR02BV-100" value="" style="endArrow=none;html=1;rounded=0;strokeWidth=2;dashed=1;entryX=0;entryY=0.5;entryDx=0;entryDy=0;exitX=1;exitY=0.5;exitDx=0;exitDy=0;" edge="1" parent="1" target="ygjz8XeZ4UIsApzR02BV-99" source="ygjz8XeZ4UIsApzR02BV-37">
          <mxGeometry width="50" height="50" relative="1" as="geometry">
            <mxPoint x="785" y="368.5" as="sourcePoint" />
            <mxPoint x="825" y="368.5" as="targetPoint" />
          </mxGeometry>
        </mxCell>
        <mxCell id="ygjz8XeZ4UIsApzR02BV-101" value="$$0$$" style="text;html=1;align=center;verticalAlign=middle;whiteSpace=wrap;rounded=0;" vertex="1" parent="1">
          <mxGeometry x="837.5" y="379" width="30" height="20" as="geometry" />
        </mxCell>
        <mxCell id="ygjz8XeZ4UIsApzR02BV-102" value="" style="endArrow=none;html=1;rounded=0;strokeWidth=2;dashed=1;entryX=0;entryY=0.5;entryDx=0;entryDy=0;exitX=1;exitY=0.5;exitDx=0;exitDy=0;" edge="1" parent="1" target="ygjz8XeZ4UIsApzR02BV-101">
          <mxGeometry width="50" height="50" relative="1" as="geometry">
            <mxPoint x="780" y="389" as="sourcePoint" />
            <mxPoint x="825" y="388.5" as="targetPoint" />
          </mxGeometry>
        </mxCell>
        <mxCell id="ygjz8XeZ4UIsApzR02BV-103" value="$$1/4$$" style="text;html=1;align=center;verticalAlign=middle;whiteSpace=wrap;rounded=0;" vertex="1" parent="1">
          <mxGeometry x="837.5" y="399" width="30" height="20" as="geometry" />
        </mxCell>
        <mxCell id="ygjz8XeZ4UIsApzR02BV-104" value="" style="endArrow=none;html=1;rounded=0;strokeWidth=2;dashed=1;entryX=0;entryY=0.5;entryDx=0;entryDy=0;exitX=1;exitY=0.5;exitDx=0;exitDy=0;" edge="1" parent="1" target="ygjz8XeZ4UIsApzR02BV-103">
          <mxGeometry width="50" height="50" relative="1" as="geometry">
            <mxPoint x="780" y="409" as="sourcePoint" />
            <mxPoint x="825" y="408.5" as="targetPoint" />
          </mxGeometry>
        </mxCell>
        <mxCell id="ygjz8XeZ4UIsApzR02BV-105" value="$$0$$" style="text;html=1;align=center;verticalAlign=middle;whiteSpace=wrap;rounded=0;" vertex="1" parent="1">
          <mxGeometry x="837.5" y="419" width="30" height="20" as="geometry" />
        </mxCell>
        <mxCell id="ygjz8XeZ4UIsApzR02BV-106" value="" style="endArrow=none;html=1;rounded=0;strokeWidth=2;dashed=1;entryX=0;entryY=0.5;entryDx=0;entryDy=0;exitX=1;exitY=0.5;exitDx=0;exitDy=0;" edge="1" parent="1" target="ygjz8XeZ4UIsApzR02BV-105">
          <mxGeometry width="50" height="50" relative="1" as="geometry">
            <mxPoint x="780" y="429" as="sourcePoint" />
            <mxPoint x="825" y="428.5" as="targetPoint" />
          </mxGeometry>
        </mxCell>
        <mxCell id="ygjz8XeZ4UIsApzR02BV-111" value="$$0$$" style="text;html=1;align=center;verticalAlign=middle;whiteSpace=wrap;rounded=0;" vertex="1" parent="1">
          <mxGeometry x="837.5" y="459" width="30" height="20" as="geometry" />
        </mxCell>
        <mxCell id="ygjz8XeZ4UIsApzR02BV-112" value="" style="endArrow=none;html=1;rounded=0;strokeWidth=2;dashed=1;entryX=0;entryY=0.5;entryDx=0;entryDy=0;exitX=1;exitY=0.5;exitDx=0;exitDy=0;" edge="1" parent="1" target="ygjz8XeZ4UIsApzR02BV-111" source="ygjz8XeZ4UIsApzR02BV-41">
          <mxGeometry width="50" height="50" relative="1" as="geometry">
            <mxPoint x="785" y="468.5" as="sourcePoint" />
            <mxPoint x="825" y="468.5" as="targetPoint" />
          </mxGeometry>
        </mxCell>
        <mxCell id="ygjz8XeZ4UIsApzR02BV-113" value="$$0$$" style="text;html=1;align=center;verticalAlign=middle;whiteSpace=wrap;rounded=0;" vertex="1" parent="1">
          <mxGeometry x="837.5" y="479" width="30" height="20" as="geometry" />
        </mxCell>
        <mxCell id="ygjz8XeZ4UIsApzR02BV-114" value="" style="endArrow=none;html=1;rounded=0;strokeWidth=2;dashed=1;entryX=0;entryY=0.5;entryDx=0;entryDy=0;exitX=1;exitY=0.5;exitDx=0;exitDy=0;" edge="1" parent="1" target="ygjz8XeZ4UIsApzR02BV-113">
          <mxGeometry width="50" height="50" relative="1" as="geometry">
            <mxPoint x="780" y="489" as="sourcePoint" />
            <mxPoint x="825" y="488.5" as="targetPoint" />
          </mxGeometry>
        </mxCell>
        <mxCell id="ygjz8XeZ4UIsApzR02BV-115" value="$$0$$" style="text;html=1;align=center;verticalAlign=middle;whiteSpace=wrap;rounded=0;" vertex="1" parent="1">
          <mxGeometry x="837.5" y="499" width="30" height="20" as="geometry" />
        </mxCell>
        <mxCell id="ygjz8XeZ4UIsApzR02BV-116" value="" style="endArrow=none;html=1;rounded=0;strokeWidth=2;dashed=1;entryX=0;entryY=0.5;entryDx=0;entryDy=0;exitX=1;exitY=0.5;exitDx=0;exitDy=0;" edge="1" parent="1" target="ygjz8XeZ4UIsApzR02BV-115">
          <mxGeometry width="50" height="50" relative="1" as="geometry">
            <mxPoint x="780" y="509" as="sourcePoint" />
            <mxPoint x="825" y="508.5" as="targetPoint" />
          </mxGeometry>
        </mxCell>
        <mxCell id="ygjz8XeZ4UIsApzR02BV-117" value="$$1/4$$" style="text;html=1;align=center;verticalAlign=middle;whiteSpace=wrap;rounded=0;" vertex="1" parent="1">
          <mxGeometry x="837.5" y="519" width="30" height="20" as="geometry" />
        </mxCell>
        <mxCell id="ygjz8XeZ4UIsApzR02BV-118" value="" style="endArrow=none;html=1;rounded=0;strokeWidth=2;dashed=1;entryX=0;entryY=0.5;entryDx=0;entryDy=0;exitX=1;exitY=0.5;exitDx=0;exitDy=0;" edge="1" parent="1" target="ygjz8XeZ4UIsApzR02BV-117">
          <mxGeometry width="50" height="50" relative="1" as="geometry">
            <mxPoint x="780" y="529" as="sourcePoint" />
            <mxPoint x="825" y="528.5" as="targetPoint" />
          </mxGeometry>
        </mxCell>
        <mxCell id="ygjz8XeZ4UIsApzR02BV-130" value="$$1/4$$" style="text;html=1;align=center;verticalAlign=middle;whiteSpace=wrap;rounded=0;" vertex="1" parent="1">
          <mxGeometry x="837.5" y="559" width="30" height="20" as="geometry" />
        </mxCell>
        <mxCell id="ygjz8XeZ4UIsApzR02BV-131" value="" style="endArrow=none;html=1;rounded=0;strokeWidth=2;dashed=1;entryX=0;entryY=0.5;entryDx=0;entryDy=0;exitX=1;exitY=0.5;exitDx=0;exitDy=0;" edge="1" parent="1" target="ygjz8XeZ4UIsApzR02BV-130" source="ygjz8XeZ4UIsApzR02BV-45">
          <mxGeometry width="50" height="50" relative="1" as="geometry">
            <mxPoint x="785" y="568.5" as="sourcePoint" />
            <mxPoint x="825" y="568.5" as="targetPoint" />
          </mxGeometry>
        </mxCell>
        <mxCell id="ygjz8XeZ4UIsApzR02BV-132" value="$$0$$" style="text;html=1;align=center;verticalAlign=middle;whiteSpace=wrap;rounded=0;" vertex="1" parent="1">
          <mxGeometry x="837.5" y="579" width="30" height="20" as="geometry" />
        </mxCell>
        <mxCell id="ygjz8XeZ4UIsApzR02BV-133" value="" style="endArrow=none;html=1;rounded=0;strokeWidth=2;dashed=1;entryX=0;entryY=0.5;entryDx=0;entryDy=0;exitX=1;exitY=0.5;exitDx=0;exitDy=0;" edge="1" parent="1" target="ygjz8XeZ4UIsApzR02BV-132">
          <mxGeometry width="50" height="50" relative="1" as="geometry">
            <mxPoint x="780" y="589" as="sourcePoint" />
            <mxPoint x="825" y="588.5" as="targetPoint" />
          </mxGeometry>
        </mxCell>
        <mxCell id="ygjz8XeZ4UIsApzR02BV-134" value="$$0$$" style="text;html=1;align=center;verticalAlign=middle;whiteSpace=wrap;rounded=0;" vertex="1" parent="1">
          <mxGeometry x="837.5" y="599" width="30" height="20" as="geometry" />
        </mxCell>
        <mxCell id="ygjz8XeZ4UIsApzR02BV-135" value="" style="endArrow=none;html=1;rounded=0;strokeWidth=2;dashed=1;entryX=0;entryY=0.5;entryDx=0;entryDy=0;exitX=1;exitY=0.5;exitDx=0;exitDy=0;" edge="1" parent="1" target="ygjz8XeZ4UIsApzR02BV-134">
          <mxGeometry width="50" height="50" relative="1" as="geometry">
            <mxPoint x="780" y="609" as="sourcePoint" />
            <mxPoint x="825" y="608.5" as="targetPoint" />
          </mxGeometry>
        </mxCell>
        <mxCell id="ygjz8XeZ4UIsApzR02BV-136" value="$$0$$" style="text;html=1;align=center;verticalAlign=middle;whiteSpace=wrap;rounded=0;" vertex="1" parent="1">
          <mxGeometry x="837.5" y="619" width="30" height="20" as="geometry" />
        </mxCell>
        <mxCell id="ygjz8XeZ4UIsApzR02BV-137" value="" style="endArrow=none;html=1;rounded=0;strokeWidth=2;dashed=1;entryX=0;entryY=0.5;entryDx=0;entryDy=0;exitX=1;exitY=0.5;exitDx=0;exitDy=0;" edge="1" parent="1" target="ygjz8XeZ4UIsApzR02BV-136">
          <mxGeometry width="50" height="50" relative="1" as="geometry">
            <mxPoint x="780" y="629" as="sourcePoint" />
            <mxPoint x="825" y="628.5" as="targetPoint" />
          </mxGeometry>
        </mxCell>
        <mxCell id="ygjz8XeZ4UIsApzR02BV-138" value="$$\text{Computational Function}$$" style="text;html=1;align=center;verticalAlign=middle;whiteSpace=wrap;rounded=0;" vertex="1" parent="1">
          <mxGeometry x="355" y="329" width="160" height="30" as="geometry" />
        </mxCell>
        <mxCell id="ygjz8XeZ4UIsApzR02BV-139" value="$$\text{Input-and-Output Table}$$" style="rounded=0;whiteSpace=wrap;html=1;dashed=1" vertex="1" parent="1">
          <mxGeometry x="665" y="189" width="270" height="20" as="geometry" />
        </mxCell>
        <mxCell id="ygjz8XeZ4UIsApzR02BV-140" value="$$\underline{\text{Probability}}$$" style="text;html=1;align=center;verticalAlign=middle;whiteSpace=wrap;rounded=0;" vertex="1" parent="1">
          <mxGeometry x="822.5" y="224" width="60" height="30" as="geometry" />
        </mxCell>
      </root>
    </mxGraphModel>
  </diagram>
</mxfile>
